<svg width="96" height="96" viewBox="0 0 96 96" fill="none" xmlns="http://www.w3.org/2000/svg">
<g clip-path="url(#clip0_70_5261)">
<path d="M67 49H29V56H67V49Z" fill="white"/>
<path d="M57 61H29V68H57V61Z" fill="white"/>
<path d="M58 26L68.31 26.5L80 26L58 4L57.5 17.43L58 26Z" fill="#0066DA"/>
<path d="M67 37H29V44H67V37Z" fill="white"/>
<path d="M58 26V4H22C18.685 4 16 6.685 16 10V86C16 89.315 18.685 92 22 92H74C77.315 92 80 89.315 80 86V26H58ZM56 67H30V62H56V67ZM66 55H30V50H66V55ZM66 43H30V38H66V43Z" fill="#2684FC"/>
</g>
<defs>
<clipPath id="clip0_70_5261">
<rect width="96" height="96" fill="white"/>
</clipPath>
</defs>
</svg>
