<svg width="96" height="96" viewBox="0 0 96 96" fill="none" xmlns="http://www.w3.org/2000/svg">
<g clip-path="url(#clip0_70_5270)">
<path d="M74 92H22C18.685 92 16 89.315 16 86V10C16 6.685 18.685 4 22 4H58L80 26V86C80 89.315 77.315 92 74 92Z" fill="#7248B9"/>
<path d="M58 4L80 26H58V4Z" fill="#56368A"/>
<path d="M66 38H41V43H66V38Z" fill="white"/>
<path d="M33 43.5C34.6569 43.5 36 42.1569 36 40.5C36 38.8431 34.6569 37.5 33 37.5C31.3431 37.5 30 38.8431 30 40.5C30 42.1569 31.3431 43.5 33 43.5Z" fill="white"/>
<path d="M66 50H41V55H66V50Z" fill="white"/>
<path d="M33 55.5C34.6569 55.5 36 54.1569 36 52.5C36 50.8431 34.6569 49.5 33 49.5C31.3431 49.5 30 50.8431 30 52.5C30 54.1569 31.3431 55.5 33 55.5Z" fill="white"/>
<path d="M66 62H41V67H66V62Z" fill="white"/>
<path d="M33 67.5C34.6569 67.5 36 66.1569 36 64.5C36 62.8431 34.6569 61.5 33 61.5C31.3431 61.5 30 62.8431 30 64.5C30 66.1569 31.3431 67.5 33 67.5Z" fill="white"/>
</g>
<defs>
<clipPath id="clip0_70_5270">
<rect width="96" height="96" fill="white"/>
</clipPath>
</defs>
</svg>
