<svg width="96" height="96" viewBox="0 0 96 96" fill="none" xmlns="http://www.w3.org/2000/svg">
<g clip-path="url(#clip0_1838_45586)">
<path d="M82.015 14.5H60.81L52.255 26.655L47.165 38.7L60.81 40.24L74.98 38.755L85.5 20.54C87.055 17.855 85.115 14.5 82.015 14.5Z" fill="#1967D2"/>
<path d="M10.5049 20.555L19.3199 35.665C20.3999 37.515 22.3799 38.655 24.5249 38.66L47.1699 38.705L60.8149 14.5H13.9849C10.8749 14.5 8.93992 17.87 10.5049 20.555Z" fill="#4285F4"/>
<path d="M51.66 79.48C50.125 82.15 46.285 82.18 44.71 79.535L35.935 64.805C34.825 62.945 34.8 60.635 35.865 58.75L47.165 38.7L74.98 38.755L51.66 79.48Z" fill="#4285F4"/>
</g>
<defs>
<clipPath id="clip0_1838_45586">
<rect width="96" height="96" fill="white"/>
</clipPath>
</defs>
</svg>
