<svg width="136" height="136" viewBox="0 0 136 136" fill="none" xmlns="http://www.w3.org/2000/svg">
<g clip-path="url(#clip0_1510_156496)">
<path d="M18.4167 57.5167C18.4875 62.1917 18.8417 66.7251 19.4792 71.3292C22.3833 91.1626 33.575 113.617 64.0333 129.342C66.5125 130.617 69.4167 130.617 71.8958 129.342C102.425 113.617 113.546 91.1626 116.521 71.3292C117.158 66.7251 117.512 62.1917 117.583 57.5167V30.1042C117.583 25.7834 114.892 21.9584 110.854 20.5417L71.4708 6.30422C69.2042 5.52506 66.7958 5.52506 64.5292 6.30422L25.1458 20.5417C21.1083 21.9584 18.4167 25.8542 18.4167 30.1042V57.5167Z" fill="#1967D2"/>
<path d="M64.5292 6.30413L25.1458 20.5416C21.1083 21.9583 18.4167 25.8541 18.4167 30.1041V57.5166C18.4875 62.1916 18.8417 66.7249 19.4792 71.3291C22.3833 91.1624 33.575 113.617 64.1042 129.342C65.3083 129.979 66.6542 130.262 68 130.262V5.66663C66.7958 5.66663 65.6625 5.87913 64.5292 6.30413Z" fill="#185ABC"/>
<path d="M68 67.5042H84.2208C83.0875 74.3042 77.2083 79.2625 68.5667 79.2625C59.075 79.2625 51.425 71.2584 51.425 61.7667C51.425 52.275 59.075 44.3417 68.5667 44.3417C72.8167 44.3417 76.6417 45.8292 79.6875 48.6625L87.975 40.375C82.9458 35.7 76.4292 32.8667 68.6375 32.8667C52.7 32.8667 39.7375 45.8292 39.7375 61.7667C39.7375 77.7042 52.6292 90.6667 68.6375 90.6667C85.3542 90.6667 96.3333 78.9084 96.3333 62.4042C96.3333 60.2792 96.1208 58.2959 95.7667 56.3125H68V67.5042Z" fill="#E8F0FE"/>
<path d="M68 79.1917C58.7917 78.8375 51.4958 70.975 51.4958 61.7667C51.4958 52.4875 58.7917 44.625 68 44.3417V32.8667C52.3458 33.2209 39.6667 46.0417 39.6667 61.7667C39.6667 77.4917 52.275 90.3125 68 90.6667V79.1917Z" fill="#D2E3FC"/>
</g>
<defs>
<clipPath id="clip0_1510_156496">
<rect width="136" height="136" fill="white"/>
</clipPath>
</defs>
</svg>
