<svg width="96" height="96" viewBox="0 0 96 96" fill="none" xmlns="http://www.w3.org/2000/svg">
<g clip-path="url(#clip0_70_5262)">
<path d="M64.165 61L69.21 72.835L77.905 84.795C79.25 84.02 80.395 82.895 81.2 81.5L90.44 65.5C91.245 64.11 91.645 62.555 91.645 61L77.455 59.5L64.165 61Z" fill="#EA4335"/>
<path d="M32.5251 10.515C32.5401 10.505 32.5501 10.49 32.5651 10.48C32.5501 10.49 32.5401 10.505 32.5251 10.515Z" fill="#00832D"/>
<path d="M33.4001 9.77496C33.3851 9.78996 33.3651 9.79996 33.3501 9.80996C33.3651 9.79996 33.3851 9.78996 33.4001 9.77496Z" fill="#00832D"/>
<path d="M31.7952 11.31C31.8002 11.305 31.8052 11.3 31.8102 11.295C31.8052 11.3 31.8002 11.305 31.7952 11.31Z" fill="#00832D"/>
<path d="M61.7401 9.205C60.3951 8.43 58.8501 8 57.2401 8H38.7651C37.1651 8 35.6051 8.44 34.2651 9.205L39.4951 21.36L47.9651 32.93L48.0001 33L56.5401 21.305L61.7401 9.205Z" fill="#00832D"/>
<path d="M31.8351 61L17.6701 59L4.36011 61C4.36011 62.55 4.76011 64.1 5.56011 65.495L14.8001 81.5C15.6051 82.89 16.7501 84.015 18.0951 84.795L26.6401 73.455L31.8351 61Z" fill="#0066DA"/>
<path d="M77.735 34.5L65.035 12.5C64.23 11.105 63.085 9.98002 61.74 9.20502L48 33L64.165 61H91.64C91.64 59.445 91.24 57.895 90.435 56.5L77.735 34.5Z" fill="#FFBA00"/>
<path d="M64.1652 61H31.8352L18.0952 84.795C19.4402 85.57 20.9852 86 22.5952 86H73.4002C75.0102 86 76.5552 85.57 77.9002 84.795L64.1652 61Z" fill="#2684FC"/>
<path d="M64.1652 61H31.8352L18.0952 84.795C19.4402 85.57 20.9852 86 22.5952 86H73.4002C75.0102 86 76.5552 85.57 77.9002 84.795L64.1652 61Z" fill="#2684FC"/>
<path d="M48.0001 33L34.2651 9.20502C32.9201 9.98002 31.7801 11.1 30.9751 12.49L5.56011 56.515C4.76011 57.905 4.36011 59.455 4.36011 61H31.8351L48.0001 33Z" fill="#00AC47"/>
</g>
<defs>
<clipPath id="clip0_70_5262">
<rect width="96" height="96" fill="white"/>
</clipPath>
</defs>
</svg>
