<svg width="96" height="96" viewBox="0 0 96 96" fill="none" xmlns="http://www.w3.org/2000/svg">
<g clip-path="url(#clip0_70_5257)">
<path d="M68 28L50 26L28 28L26 48L28 68L48 70.5L68 68L70 47.5L68 28Z" fill="white"/>
<path d="M36.205 59.0301C34.71 58.0201 33.675 56.5451 33.11 54.5951L36.58 53.1651C36.895 54.3651 37.445 55.2951 38.23 55.9551C39.01 56.6151 39.96 56.9401 41.07 56.9401C42.205 56.9401 43.18 56.5951 43.995 55.9051C44.81 55.2151 45.22 54.3351 45.22 53.2701C45.22 52.1801 44.79 51.2901 43.93 50.6001C43.07 49.9101 41.99 49.5651 40.7 49.5651H38.695V46.1301H40.495C41.605 46.1301 42.54 45.8301 43.3 45.2301C44.06 44.6301 44.44 43.8101 44.44 42.7651C44.44 41.8351 44.1 41.0951 43.42 40.5401C42.74 39.9851 41.88 39.7051 40.835 39.7051C39.815 39.7051 39.005 39.9751 38.405 40.5201C37.805 41.0651 37.37 41.7351 37.095 42.5251L33.66 41.0951C34.115 39.8051 34.95 38.6651 36.175 37.6801C37.4 36.6951 38.965 36.2001 40.865 36.2001C42.27 36.2001 43.535 36.4701 44.655 37.0151C45.775 37.5601 46.655 38.3151 47.29 39.2751C47.925 40.2401 48.24 41.3201 48.24 42.5201C48.24 43.7451 47.945 44.7801 47.355 45.6301C46.765 46.4801 46.04 47.1301 45.18 47.5851V47.7901C46.315 48.2651 47.24 48.9901 47.97 49.9651C48.695 50.9401 49.06 52.1051 49.06 53.4651C49.06 54.8251 48.715 56.0401 48.025 57.1051C47.335 58.1701 46.38 59.0101 45.17 59.6201C43.955 60.2301 42.59 60.5401 41.075 60.5401C39.32 60.5451 37.7 60.0401 36.205 59.0301Z" fill="#2684FC"/>
<path d="M57.5001 41.81L53.7101 44.565L51.8051 41.675L58.6401 36.745H61.2601V60H57.5001V41.81Z" fill="#2684FC"/>
<path d="M68 86L86 68V64H68V68H64V86H68Z" fill="#E94235"/>
<path d="M68 68H24V86H68V68Z" fill="#00AC47"/>
<path d="M16 10C12.685 10 10 12.685 10 16V72H28V28H72V10H16Z" fill="#2684FC"/>
<path d="M10 68V80C10 83.315 12.685 86 16 86H28V68H10Z" fill="#00832D"/>
<path d="M86 24H68V68H86V24Z" fill="#FFBA00"/>
<path d="M86 28V16C86 12.685 83.315 10 80 10H68V28H86Z" fill="#0066DA"/>
</g>
<defs>
<clipPath id="clip0_70_5257">
<rect width="96" height="96" fill="white"/>
</clipPath>
</defs>
</svg>
